<svg id="final_svg" xmlns="http://www.w3.org/2000/svg" xmlns:xlink="http://www.w3.org/1999/xlink" viewBox="1380.343017578125 714.8703002929688 576.659912109375 417.03240966796875">
      <style type="text/css">.st0{fill:url(#SVGID_1_);}	.st1{opacity:0.65;fill:url(#SVGID_00000052814149083356018920000011454806140482784653_);enable-background:new    ;}	.st2{opacity:0.65;fill:url(#SVGID_00000083076003760173570570000001546143370493434502_);enable-background:new    ;}	.st3{opacity:0.65;fill:url(#SVGID_00000032650011043107253440000016588316906484671380_);enable-background:new    ;}	.st4{opacity:0.65;fill:url(#SVGID_00000055689671531643986020000001720725710649976715_);enable-background:new    ;}</style>
    <metadata>
              <sfw>
                      <slices></slices>
            <slicesourcebounds bottomleftorigin="true" height="205.122086" width="315" x="0" y="0"></slicesourcebounds>
                  </sfw>
          </metadata>
    <g id="color_index_g" transform="translate(1462.2425, 714.870272917) scale(1.281)" opacity="1">
              <linearGradient id="SVGID_1_" gradientUnits="userSpaceOnUse" x1="-100.912407" y1="502.578491" x2="218.25589" y2="489.982117" gradientTransform="matrix(1 0 0 1 0 -389.822876)">
                      <stop offset="0.4072" style="stop-color:#30c5d2"></stop>
            <stop offset="0.8418" style="stop-color:#471069"></stop>
                  </linearGradient>
        <path class="st0" d="M292.492035,6.15194c-14.104431-8.20258-31.009766-8.20258-45.114197,0l-43.313644,25.00787		c-4.001236-18.005659-20.006271-27.30859-33.910645-30.10947C169.953491,1.05033,164.150024,0,161.249115,0H43.715759		C19.60817,0,0,19.656191,0,43.8638v117.536987c0,24.007553,19.60639,43.721298,43.71397,43.721298l117.435776-0.001236		c26.308289,0,41.113922-8.40271,44.014832-28.30899c0,0,42.071686,22.078491,42.11319,22.100723		c32.415741,17.363617,67.810425-3.61438,67.721344-39.112289V45.26424C315.099152,28.95911,306.696503,14.35452,292.492035,6.15194		z M161.250732,176.805634H43.71376c-8.50267,0-15.504879-6.902161-15.504879-15.504883V43.8638		c0-8.502678,6.902172-15.504879,15.504879-15.504879h117.436951c8.502686,0,15.796036,5.249142,15.595978,18.553329		l-28.700104,16.55772c-14.104446,8.202583-22.607109,22.807175-22.607109,39.112305		c0,15.804977,8.602699,30.409546,22.00692,38.712189l29.304306,16.845383		C176.750717,168.843216,169.753418,176.805634,161.250732,176.805634z M176.748764,79.57901l0.001938,45.910477		c0,0-14.290817-8.19754-14.299591-8.202583c-11.042374-6.331993-11.428421-22.953529-0.200073-29.309219L176.748764,79.57901z		 M286.790253,159.900314c0,13.404221-13.804321,20.906586-25.307953,14.604614l-56.317719-32.510239		c0-23.407364,0-54.61718,0-78.72477L261.4823,30.759689c10.10318-5.701799,25.508026-0.50016,25.307953,14.604591V159.900314z"></path>
          </g>
    <g transform="translate(1462.2425, 714.870272917) scale(1.281)" opacity="1">
              <linearGradient id="SVGID_00000105396403021465348140000011812676143583338934_" gradientUnits="userSpaceOnUse" x1="178.019363" y1="-212.374786" x2="189.188797" y2="-249.780548" gradientTransform="matrix(1 0 0 -1 0 -184.724396)">
                      <stop offset="0" style="stop-color:#000000;stop-opacity:0"></stop>
            <stop offset="1" style="stop-color:#000000"></stop>
                  </linearGradient>
        <linearGradient id="SVGID_00000034084615825220477430000011263183236354371994_" gradientUnits="userSpaceOnUse" x1="228.487625" y1="-357.628052" x2="193.135361" y2="-336.848389" gradientTransform="matrix(1 0 0 -1 0 -184.724396)">
                      <stop offset="0" style="stop-color:#000000;stop-opacity:0"></stop>
            <stop offset="0.9212" style="stop-color:#000000"></stop>
                  </linearGradient>
        <linearGradient id="SVGID_00000121980823561331519870000014450701105555815563_" gradientUnits="userSpaceOnUse" x1="158.534027" y1="-316.018799" x2="188.108871" y2="-333.519165" gradientTransform="matrix(1 0 0 -1 0 -184.724396)">
                      <stop offset="0" style="stop-color:#000000;stop-opacity:0"></stop>
            <stop offset="1" style="stop-color:#000000"></stop>
                  </linearGradient>
        <linearGradient id="SVGID_00000000914531750526059440000006443406516320848269_" gradientUnits="userSpaceOnUse" x1="190.956665" y1="-288.731659" x2="190.956665" y2="-245.552856" gradientTransform="matrix(1 0 0 -1 0 -184.724396)">
                      <stop offset="0" style="stop-color:#000000;stop-opacity:0"></stop>
            <stop offset="1" style="stop-color:#000000"></stop>
                  </linearGradient>
        <path style="opacity:0.65;fill:url(#SVGID_00000105396403021465348140000011812676143583338934_);enable-background:new    ;" d="		M176.746689,46.912251c0.200058-13.304188-6.90419-18.547029-15.506897-18.547029h-8.102554		c3.801193-8.30261,11.203522-20.606489,17.005341-27.30859c13.904388,2.80088,29.920364,12.09751,33.921616,30.10317		L176.746689,46.912251z"></path>
        <path style="opacity:0.65;fill:url(#SVGID_00000034084615825220477430000011263183236354371994_);enable-background:new    ;" d="		M243.665741,164.207977l-12.003784,26.508331l-26.497375-13.904449c0-3.901215,0-34.817169,0-34.817169L243.665741,164.207977z"></path>
        <path style="opacity:0.65;fill:url(#SVGID_00000121980823561331519870000014450701105555815563_);enable-background:new    ;" d="		M176.750702,125.489487v32.65036l-29.315247-16.839096c-0.400116-0.200058,0.400116,0.200058,0,0l14.904694-24.007553		L176.750702,125.489487z"></path>
        <polygon style="opacity:0.65;fill:url(#SVGID_00000000914531750526059440000006443406516320848269_);enable-background:new    ;" points="		205.164581,63.26992 176.748764,79.57901 176.844711,113.992157 205.15361,113.992157 	"></polygon>
          </g>
    <g fill="#310c55" id="text_group" transform="translate(1372.003061, 1034.622665083)" opacity="1.0">
              <path d="M8.34 97.28L8.34 26.93L24.62 26.93L24.62 84.02L59.90 84.02L59.90 97.28L8.34 97.28ZM85.22 84.22L123.51 84.22L123.51 97.28L69.04 97.28L69.04 26.93L122.21 26.93L122.21 40.00L85.22 40.00L85.22 55.27L117.88 55.27L117.88 67.94L85.22 67.94L85.22 84.22ZM198.89 97.28L180.09 97.28L163.11 72.86L146.43 97.28L127.73 97.28L153.76 61.50L129.04 26.93L147.53 26.93L163.71 49.75L179.59 26.93L197.18 26.93L172.66 60.90L198.89 97.28ZM315.26 97.28L299.99 97.28L299.89 55.07L279.18 89.85L271.85 89.85L251.25 55.98L251.25 97.28L235.97 97.28L235.97 26.93L249.44 26.93L275.77 70.65L301.69 26.93L315.06 26.93L315.26 97.28ZM348.13 84.22L386.41 84.22L386.41 97.28L331.94 97.28L331.94 26.93L385.11 26.93L385.11 40.00L348.13 40.00L348.13 55.27L380.79 55.27L380.79 67.94L348.13 67.94L348.13 84.22ZM399.38 97.28L399.38 26.93L431.34 26.93Q442.79 26.93 451.59 31.31Q460.38 35.68 465.26 43.62Q470.13 51.56 470.13 62.11L470.13 62.11Q470.13 72.66 465.26 80.60Q460.38 88.54 451.59 92.91Q442.79 97.28 431.34 97.28L431.34 97.28L399.38 97.28ZM415.66 83.92L430.53 83.92Q441.09 83.92 447.37 78.04Q453.65 72.16 453.65 62.11L453.65 62.11Q453.65 52.06 447.37 46.18Q441.09 40.30 430.53 40.30L430.53 40.30L415.66 40.30L415.66 83.92ZM482.39 97.28L482.39 26.93L498.67 26.93L498.67 97.28L482.39 97.28ZM567.91 97.28L561.68 82.21L529.02 82.21L522.79 97.28L506.11 97.28L537.46 26.93L553.54 26.93L585.00 97.28L567.91 97.28ZM534.25 69.85L556.56 69.85L545.40 42.91L534.25 69.85Z"></path>
          </g>
  </svg>